<?xml version="1.0" encoding="utf-8"?>
<!-- Generator: Adobe Illustrator 21.0.0, SVG Export Plug-In . SVG Version: 6.00 Build 0)  -->
<svg version="1.1" id="Слой_1" xmlns="http://www.w3.org/2000/svg" xmlns:xlink="http://www.w3.org/1999/xlink" x="0px" y="0px"
	 viewBox="0 0 215 40" style="enable-background:new 0 0 215 40;" xml:space="preserve">
<style type="text/css">
	.st0{fill:#75C289;}
	.st1{fill:#2E455C;}
	.st2{fill:#EDCA58;}
	.st3{fill:#1F77B4;}
</style>
<g>
	<g>
		<path class="st0" d="M12.5,13.2c0,0,3.5-1.2,7-6.2c2.2-3.1,3.1-5.4,3.1-5.4l14.7,10.8c0,0-1.5,4.6-3.1,5.8c-0.4-1.5,1.4-5-4-5
			S12.5,13.2,12.5,13.2L12.5,13.2z"/>
		<path class="st1" d="M35.6,18c0-5.6-0.2-4.7-4.7-4.7H9l3.3-0.8c0,0,3.3-1.2,6.6-5.9c2.1-3,3-5.3,3-5.3l0.3-0.8L38,12.2l-0.2,0.5
			C37.7,13.1,35.6,18.2,35.6,18z M15.1,12.5H28c4.7,0,6.5,0.5,6.5,4.3c0.7-1.1,1.5-2.8,1.9-4.1l-13.6-10c-0.5,0.9-1.4,2.6-2.8,4.8
			C18.2,10,16.5,11.6,15.1,12.5z"/>
	</g>
	<g>
		<path class="st2" d="M31.4,38.7h-27c-5.6,0-3.5-4.5-3.5-10.1v-6.2c0-5.6-2.1-10.1,3.5-10.1h27c5.6,0,3.5,4.5,3.5,10.1v6.2
			C34.9,34.2,37,38.7,31.4,38.7z"/>
		<path class="st1" d="M31.3,39.6H4.5c-2.5,0-4.5-2-4.5-4.5v-19c0-2.5,2-4.5,4.5-4.5h26.8c2.5,0,4.5,2,4.5,4.5v19
			C35.8,37.6,33.8,39.6,31.3,39.6z M4.5,13.3c-1.5,0-2.7,1.2-2.7,2.7v19c0,1.5,1.2,2.7,2.7,2.7h26.8c1.5,0,2.7-1.2,2.7-2.7v-19
			c0-1.5-1.2-2.7-2.7-2.7H4.5z"/>
	</g>
	<g>
		<rect x="24.1" y="21.7" class="st2" width="13.1" height="8.5"/>
		<path class="st1" d="M38.1,31.1H23.2V20.8h14.9V31.1z M25,29.3h11.3v-6.7H25V29.3z"/>
	</g>
	<circle class="st1" cx="28.3" cy="26" r="1.9"/>
	<rect x="26.8" y="15.9" class="st1" width="3.9" height="0.8"/>
	<rect x="21.4" y="15.9" class="st1" width="3.9" height="0.8"/>
	<rect x="16" y="15.9" class="st1" width="3.9" height="0.8"/>
	<rect x="10.6" y="15.9" class="st1" width="3.9" height="0.8"/>
	<rect x="5.2" y="15.9" class="st1" width="3.9" height="0.8"/>
	<rect x="26.8" y="35.2" class="st1" width="3.9" height="0.8"/>
	<rect x="21.4" y="35.2" class="st1" width="3.9" height="0.8"/>
	<rect x="16" y="35.2" class="st1" width="3.9" height="0.8"/>
	<rect x="10.6" y="35.2" class="st1" width="3.9" height="0.8"/>
	<rect x="5.2" y="35.2" class="st1" width="3.9" height="0.8"/>
	
		<rect x="2.8" y="31.4" transform="matrix(-1.836970e-16 1 -1 -1.836970e-16 36.5166 26.9766)" class="st1" width="3.9" height="0.8"/>
	
		<rect x="2.8" y="26" transform="matrix(-1.836970e-16 1 -1 -1.836970e-16 31.1071 21.5671)" class="st1" width="3.9" height="0.8"/>
	
		<rect x="2.8" y="20.5" transform="matrix(-1.836970e-16 1 -1 -1.836970e-16 25.6975 16.1576)" class="st1" width="3.9" height="0.8"/>
</g>
<g>
	<path class="st3" d="M62.8,33.8c-4.2,0.5-8.1,0.7-11.7,0.7c-1.8,0-3.1-0.4-3.9-1.3c-0.8-0.8-1.3-2.1-1.3-3.9v-8.7
		c0-1.9,0.4-3.3,1.3-4.1c0.9-0.9,2.2-1.3,4.1-1.3h9.8V19h-8.7c-1.1,0-1.6,0.5-1.6,1.6v8.7c0,0.4,0.1,0.7,0.4,1
		c0.2,0.2,0.6,0.4,1,0.4c2.1,0,4,0,5.7-0.1v-3.9h-3.5v-3.3h8.4V33.8z"/>
	<path class="st3" d="M78.6,33.9c-3.5,0.4-6.7,0.5-9.5,0.5c-1.2,0-2.2-0.4-3-1.1c-0.7-0.7-1.1-1.7-1.1-3v-6.5c0-1.4,0.4-2.4,1.2-3.2
		c0.8-0.8,1.8-1.2,3.2-1.2h5.4c1.4,0,2.4,0.4,3.2,1.2c0.8,0.8,1.2,1.8,1.2,3.2v5h-9.4V30c0,0.3,0.1,0.5,0.3,0.7
		c0.2,0.2,0.4,0.3,0.7,0.3c1.8,0,4.4-0.1,7.9-0.4V33.9z M70.8,22.9c-0.7,0-1.1,0.4-1.1,1.1v1.5h4.6V24c0-0.7-0.4-1.1-1.1-1.1H70.8z"
		/>
	<path class="st3" d="M91.6,34.2c-1.8,0.2-3.5,0.3-5.2,0.3c-1.2,0-2.2-0.4-3-1.1c-0.7-0.7-1.1-1.7-1.1-3v-6.9h-1.6v-3.7h1.6l0.5-3.3
		h4.2v3.3h3.4v3.7h-3.4v6.3c0,0.3,0.1,0.5,0.3,0.7c0.2,0.2,0.4,0.3,0.7,0.3h3.5V34.2z"/>
	<path d="M108.5,33.9c-4,0.4-7.4,0.5-10.1,0.5c-1.8,0-3.1-0.4-3.9-1.3c-0.8-0.8-1.3-2.1-1.3-3.9v-8.7c0-1.9,0.4-3.3,1.3-4.1
		c0.9-0.9,2.2-1.3,4.1-1.3h9.8V19h-8.7c-1.1,0-1.6,0.5-1.6,1.6v8.7c0,0.4,0.1,0.7,0.4,1c0.2,0.2,0.6,0.4,0.9,0.4c0.4,0,0.8,0,1.3,0
		c0.5,0,0.9,0,1.4,0c0.5,0,1,0,1.5-0.1c0.5,0,1.1-0.1,1.9-0.1c0.8-0.1,1.8-0.1,2.9-0.2V33.9z"/>
	<path d="M118.6,23.8c-1.1,0-2.3,0.3-3.5,0.8v9.6h-4.8V19.8h4.2l0.3,1.8c1.6-1.4,3.2-2,4.9-2h1.2v4.2H118.6z"/>
	<path d="M136.2,33.9c-3.5,0.4-6.7,0.5-9.5,0.5c-1.2,0-2.2-0.4-3-1.1c-0.7-0.7-1.1-1.7-1.1-3v-6.5c0-1.4,0.4-2.4,1.2-3.2
		c0.8-0.8,1.8-1.2,3.2-1.2h5.4c1.4,0,2.4,0.4,3.2,1.2c0.8,0.8,1.2,1.8,1.2,3.2v5h-9.4V30c0,0.3,0.1,0.5,0.3,0.7
		c0.2,0.2,0.4,0.3,0.7,0.3c1.8,0,4.4-0.1,7.9-0.4V33.9z M128.4,22.9c-0.7,0-1.1,0.4-1.1,1.1v1.5h4.6V24c0-0.7-0.4-1.1-1.1-1.1H128.4
		z"/>
	<path d="M149.4,34.2l-0.3-1.4c-0.9,0.6-1.7,1-2.6,1.2c-0.9,0.3-1.7,0.4-2.3,0.4H143c-1.2,0-2.2-0.4-3-1.1c-0.7-0.7-1.1-1.7-1.1-3
		v-6.3c0-1.4,0.4-2.4,1.2-3.2c0.8-0.8,1.8-1.2,3.2-1.2h5.6v-4.6h4.8v19H149.4z M145.6,30.5c1,0,2-0.2,3.3-0.5v-6.5h-4.1
		c-0.7,0-1.1,0.4-1.1,1.1v5c0,0.3,0.1,0.5,0.3,0.7c0.2,0.2,0.4,0.3,0.7,0.3H145.6z"/>
	<path d="M162.3,20.4v13.9h-4.8V24h-2v-3.7H162.3z M157.5,14.9h4.8v3.8h-4.8V14.9z"/>
	<path d="M175,34.2c-1.8,0.2-3.5,0.3-5.2,0.3c-1.2,0-2.2-0.4-3-1.1c-0.7-0.7-1.1-1.7-1.1-3v-6.9h-1.6v-3.7h1.6l0.5-3.3h4.2v3.3h3.4
		v3.7h-3.4v6.3c0,0.3,0.1,0.5,0.3,0.7c0.2,0.2,0.4,0.3,0.7,0.3h3.5V34.2z"/>
	<path d="M176.4,30.1h4.9v4.1h-4.9V30.1z"/>
	<path d="M188.2,20.1c1.8-0.4,3.3-0.5,4.6-0.5h1c1.2,0,2.2,0.4,3,1.1c0.7,0.7,1.1,1.7,1.1,3v6.3c0,1.4-0.4,2.4-1.2,3.2
		c-0.8,0.8-1.8,1.2-3.2,1.2h-10.1v-19h4.8V20.1z M193.1,24.2c0-0.3-0.1-0.5-0.3-0.7c-0.2-0.2-0.4-0.3-0.7-0.3h-0.7
		c-0.8,0-1.4,0-2,0.1c-0.6,0.1-1,0.1-1.3,0.2v7.1h3.8c0.7,0,1.1-0.4,1.1-1.1V24.2z"/>
	<path d="M204.1,39.1c-1,0-2.1-0.1-3.5-0.3v-3.5h2.4c0.7,0,1.1-0.2,1.3-0.6c0.2-0.4,0.2-0.9-0.1-1.6l-5.6-13.3h5l3.4,9.2l2.9-9.2h5
		l-5.4,14.9c-0.5,1.4-1.2,2.5-2,3.2C206.7,38.7,205.6,39.1,204.1,39.1z"/>
</g>
</svg>
